<mxfile host="app.diagrams.net" modified="2024-05-06T03:15:57.574Z" agent="Mozilla/5.0 (Windows NT 10.0; Win64; x64) AppleWebKit/537.36 (KHTML, like Gecko) Chrome/124.0.0.0 Safari/537.36" version="24.3.1" etag="4Lse_se7ChOQVk8OZKrA" type="device">
  <diagram id="IHiEzPJ1XzftWYXsUq5z" name="PÃ¡gina-1">
    <mxGraphModel dx="1114" dy="600" grid="1" gridSize="10" guides="1" tooltips="1" connect="1" arrows="1" fold="1" page="1" pageScale="1" pageWidth="827" pageHeight="1169" math="0" shadow="0">
      <root>
        <mxCell id="0" />
        <mxCell id="1" parent="0" />
        <mxCell id="hh6Yl0KtWaiuFf5w8Fhj-1" value="" style="whiteSpace=wrap;html=1;aspect=fixed;" vertex="1" parent="1">
          <mxGeometry x="200" y="70" width="450" height="450" as="geometry" />
        </mxCell>
        <mxCell id="hh6Yl0KtWaiuFf5w8Fhj-2" value="&lt;font style=&quot;font-size: 36px;&quot;&gt;ConversionTemp&lt;/font&gt;" style="rounded=0;whiteSpace=wrap;html=1;" vertex="1" parent="1">
          <mxGeometry x="200" y="70" width="450" height="60" as="geometry" />
        </mxCell>
        <mxCell id="hh6Yl0KtWaiuFf5w8Fhj-3" value="&lt;font style=&quot;font-size: 48px;&quot;&gt;Int c;&lt;/font&gt;" style="rounded=0;whiteSpace=wrap;html=1;" vertex="1" parent="1">
          <mxGeometry x="200" y="130" width="450" height="190" as="geometry" />
        </mxCell>
        <mxCell id="hh6Yl0KtWaiuFf5w8Fhj-4" value="&lt;font style=&quot;font-size: 36px;&quot;&gt;celsiusAFahrenheit();&lt;/font&gt;" style="rounded=0;whiteSpace=wrap;html=1;" vertex="1" parent="1">
          <mxGeometry x="200" y="320" width="450" height="200" as="geometry" />
        </mxCell>
      </root>
    </mxGraphModel>
  </diagram>
</mxfile>
